<?xml version="1.0" standalone="no"?><!DOCTYPE svg PUBLIC "-//W3C//DTD SVG 1.1//EN"
  "http://www.w3.org/Graphics/SVG/1.1/DTD/svg11.dtd">
<svg t="1577186573535" class="icon" viewBox="0 0 1024 1024" version="1.1"
  xmlns="http://www.w3.org/2000/svg" p-id="1068"
  width="81" height="81">
  <defs>
    <style type="text/css"></style>
  </defs>
  <path
    d="M896 256H704l-64-64H384l-64 64H128c-35.2 0-64 28.8-64 64v448c0 35.2 28.8 64 64 64h768c35.2 0 64-28.8 64-64V320c0-35.2-28.8-64-64-64z m0 512H128V320h128l64-64h256l64 64h128v448z"
    p-id="1069"></path>
  <path
    d="M512 384c-70.4 0-128 57.6-128 128s57.6 128 128 128 128-57.6 128-128-57.6-128-128-128z m0 192c-35.2 0-64-28.8-64-64s28.8-64 64-64 64 28.8 64 64-28.8 64-64 64z"
    p-id="1070"></path>
  <path
    d="M320 192h64v64h-64z m320 0h64v64h-64z"
    p-id="1071"></path>
</svg>
