<?xml version="1.0" standalone="no"?><!DOCTYPE svg PUBLIC "-//W3C//DTD SVG 1.1//EN"
  "http://www.w3.org/Graphics/SVG/1.1/DTD/svg11.dtd">
<svg t="1577186573535" class="icon" viewBox="0 0 1024 1024" version="1.1"
     xmlns="http://www.w3.org/2000/svg" p-id="1068"
     width="81" height="81">
  <defs>
    <style type="text/css"></style>
  </defs>
  <path
    d="M832 192H192c-35.2 0-64 28.8-64 64v512c0 35.2 28.8 64 64 64h640c35.2 0 64-28.8 64-64V256c0-35.2-28.8-64-64-64z m0 576H192V256h640v512z"
    p-id="1069"></path>
  <path
    d="M256 320h512v384H256V320z"
    p-id="1070"></path>
  <path
    d="M320 384h64v64h-64z m128 0h64v64h-64z m128 0h64v64h-64z m128 0h64v64h-64z"
    p-id="1071"></path>
  <path
    d="M320 512h64v64h-64z m128 0h64v64h-64z m128 0h64v64h-64z m128 0h64v64h-64z"
    p-id="1072"></path>
  <path
    d="M320 640h64v64h-64z m128 0h64v64h-64z m128 0h64v64h-64z m128 0h64v64h-64z"
    p-id="1073"></path>
  <path
    d="M192 896h640v32H192z"
    p-id="1074"></path>
</svg>
