<svg viewBox="0 0 1024 1024" xmlns="http://www.w3.org/2000/svg">
  <path
    d="M512 64C264.6 64 64 264.6 64 512s200.6 448 448 448 448-200.6 448-448S759.4 64 512 64zm0 820c-205.4 0-372-166.6-372-372s166.6-372 372-372 372 166.6 372 372-166.6 372-372 372z"
    fill="#C71D23"/>
  <path
    d="M512 140c-205.4 0-372 166.6-372 372s166.6 372 372 372 372-166.6 372-372-166.6-372-372-372zm0 640c-147.9 0-268-120.1-268-268s120.1-268 268-268 268 120.1 268 268-120.1 268-268 268z"
    fill="#C71D23"/>
  <path
    d="M512 216c-163.3 0-296 132.7-296 296s132.7 296 296 296 296-132.7 296-296-132.7-296-296-296zm0 520c-123.7 0-224-100.3-224-224s100.3-224 224-224 224 100.3 224 224-100.3 224-224 224z"
    fill="#C71D23"/>
  <path
    d="M512 292c-121.2 0-220 98.8-220 220s98.8 220 220 220 220-98.8 220-220-98.8-220-220-220zm0 360c-77.2 0-140-62.8-140-140s62.8-140 140-140 140 62.8 140 140-62.8 140-140 140z"
    fill="#C71D23"/>
  <path
    d="M512 368c-79.5 0-144 64.5-144 144s64.5 144 144 144 144-64.5 144-144-64.5-144-144-144zm0 208c-35.3 0-64-28.7-64-64s28.7-64 64-64 64 28.7 64 64-28.7 64-64 64z"
    fill="#C71D23"/>
  <path
    d="M512 444c-37.6 0-68 30.4-68 68s30.4 68 68 68 68-30.4 68-68-30.4-68-68-68zm0 88c-11 0-20-9-20-20s9-20 20-20 20 9 20 20-9 20-20 20z"
    fill="#C71D23"/>
</svg>
