<?xml version="1.0" standalone="no"?><!DOCTYPE svg PUBLIC "-//W3C//DTD SVG 1.1//EN"
  "http://www.w3.org/Graphics/SVG/1.1/DTD/svg11.dtd">
<svg t="1577186573535" class="icon" viewBox="0 0 1024 1024" version="1.1"
  xmlns="http://www.w3.org/2000/svg" p-id="1068"
  width="81" height="81">
  <defs>
    <style type="text/css"></style>
  </defs>
  <path
    d="M896 192H128c-35.2 0-64 28.8-64 64v512c0 35.2 28.8 64 64 64h768c35.2 0 64-28.8 64-64V256c0-35.2-28.8-64-64-64z m0 576H128V256h768v512z"
    p-id="1069"></path>
  <path
    d="M192 320h640v384H192V320z"
    p-id="1070"></path>
  <path
    d="M256 384h512v64H256V384z"
    p-id="1071"></path>
  <path
    d="M256 512h512v64H256V512z"
    p-id="1072"></path>
  <path
    d="M256 640h512v64H256V640z"
    p-id="1073"></path>
  <path
    d="M320 416h64v32h-64z m128 0h64v32h-64z m128 0h64v32h-64z"
    p-id="1074"></path>
  <path
    d="M320 544h64v32h-64z m128 0h64v32h-64z m128 0h64v32h-64z"
    p-id="1075"></path>
  <path
    d="M320 672h64v32h-64z m128 0h64v32h-64z m128 0h64v32h-64z"
    p-id="1076"></path>
  <path
    d="M832 832H192v32h640v-32z"
    p-id="1077"></path>
</svg>
