<?xml version="1.0" standalone="no"?><!DOCTYPE svg PUBLIC "-//W3C//DTD SVG 1.1//EN"
  "http://www.w3.org/Graphics/SVG/1.1/DTD/svg11.dtd">
<svg t="1577186573535" class="icon" viewBox="0 0 1024 1024" version="1.1"
  xmlns="http://www.w3.org/2000/svg" p-id="1068"
  width="81" height="81">
  <defs>
    <style type="text/css"></style>
  </defs>
  <path
    d="M512 128c-212.8 0-384 171.2-384 384s171.2 384 384 384 384-171.2 384-384-171.2-384-384-384z m0 704c-176.8 0-320-143.2-320-320s143.2-320 320-320 320 143.2 320 320-143.2 320-320 320z"
    p-id="1069"></path>
  <path
    d="M512 256c-140.8 0-256 115.2-256 256s115.2 256 256 256 256-115.2 256-256-115.2-256-256-256z m0 448c-105.6 0-192-86.4-192-192s86.4-192 192-192 192 86.4 192 192-86.4 192-192 192z"
    p-id="1070"></path>
  <path
    d="M512 384c-70.4 0-128 57.6-128 128s57.6 128 128 128 128-57.6 128-128-57.6-128-128-128z m0 192c-35.2 0-64-28.8-64-64s28.8-64 64-64 64 28.8 64 64-28.8 64-64 64z"
    p-id="1071"></path>
  <path
    d="M512 512c-8.8 0-16-7.2-16-16s7.2-16 16-16 16 7.2 16 16-7.2 16-16 16z"
    p-id="1072"></path>
  <path
    d="M256 256h32v32h-32z m448 0h32v32h-32z m0 448h32v32h-32z m-448 0h32v32h-32z"
    p-id="1073"></path>
</svg>
