<?xml version="1.0" standalone="no"?><!DOCTYPE svg PUBLIC "-//W3C//DTD SVG 1.1//EN" "http://www.w3.org/Graphics/SVG/1.1/DTD/svg11.dtd"><svg t="1762246920854" class="icon" viewBox="0 0 1024 1024" version="1.1" xmlns="http://www.w3.org/2000/svg" p-id="6794" xmlns:xlink="http://www.w3.org/1999/xlink" width="200" height="200"><path d="M796.2 427.1c13.6-41.6 27-83.4 40.4-125.1 8-24.8 15.8-50 24.5-74.5 1.3-3.7 6.3-8.9 9.4-8.9 43.6-0.5 87.1-0.3 133.4-0.3-5.3 17.3-9.7 32.7-14.7 48.1-34.8 107.9-69.6 216.2-104.6 324.3-32.2 99.2-142 160.3-238.5 131.8 2.7-3.2 4.9-6.5 7.6-9.1C737.5 642 775 550.7 768.6 441.5c-5.1-84.7-73-160.8-157.3-181.3-115.2-27.9-218.9 0.4-315.3 63.1-75.7 49.5-133.1 114.9-165.4 200-18.7 49.3-25.4 100.2-13.4 152.4 20.9 91.3 94.7 146 180 160.4 85.9 14.7 166.5-3.3 243.4-41.9 2.9-1.3 10.5-4.9 10.5-4.9l1.8 24.5s-4.8 5.6-16.9 12.2c-50.3 27-103.2 47.4-159.8 56.2-91.2 14.4-179.8 7.7-256-50.4-82.9-63.2-104.4-150.5-84.5-249.6 16.4-83 59.5-151.9 117.4-211.9 71.3-73.9 156.7-124.3 256.2-149.5 78.2-20.1 156.2-22 232.5 8.6 83.3 33.6 134.3 94.1 148.8 183.7 0.8 4.4 1.8 8.9 2.6 13.3 1 0.2 2 0.7 3 0.7z" fill="#E50012" p-id="6795"></path><path d="M575.5 351.7c-50.3-8.4-100.8-8.2-151.5-1.6-71.8 9.6-124.7 46.6-163.4 110.3 36.7 4.2 132.6 15.3 132.6 15.3s4-5.1 7.3-8.8c27.2-31.7 57.9-41.1 97.9-29.9 7.9 2.3 20.3 6.5 19.8 16.8-0.4 12.1-1.2 24-16.5 27.5-21.8 5.3-43.4 11.7-65.3 16.6-46.4 10.5-93.4 18.4-139 31.3-44.9 12.4-78.4 40.8-95.3 85.9-18.1 48 5.8 97.1 55.3 109.5 44.3 11.1 88.7 7 131.1-9.4 21.6-8.6 41.7-21 63.9-32.1 0 5.1-2.5 13.5-2.5 17.9 0 10.6 7 19.2 16.6 19.2h130.9c-3.3-16.1-2.8-30.6 1.2-43.1 19.6-63.1 40.1-125.8 60.2-188.7 21.7-69.2-11.8-125.3-83.3-136.7zM375.9 648.8c-12.8-0.4-25.4-2.1-30.4-15.9-5.3-14.5-0.3-27.3 10.6-37.3 5-4.8 10.8-10.1 17.4-12.1 37.7-12.2 75.7-23.4 116-35.5-9.3 60.7-57.2 101.5-113.6 100.8z" fill="#231815" p-id="6796"></path></svg>